<svg xmlns="http://www.w3.org/2000/svg" viewBox="0 0 60 60"><defs><style>.cls-1{fill:#eee;}.cls-2{fill:#ff9500;}.cls-3{fill:#007aff;}</style></defs><title>icon_bmrCalculator</title><g id="Layer_2" data-name="Layer 2"><g id="Layer_1-2" data-name="Layer 1"><rect class="cls-1" width="60" height="60"/><path class="cls-2" d="M45.52,31.82a5.52,5.52,0,0,0-5,3.17A5.52,5.52,0,0,0,30,37.34C30,42.86,40.53,51,40.53,51S51,42.86,51,37.34A5.52,5.52,0,0,0,45.52,31.82Z"/><path class="cls-3" d="M48.74,9h-3.4v2.42a.53.53,0,1,1-1.05,0V9H41.46v3.75a.53.53,0,1,1-1.05,0V9H37.58v2.42a.53.53,0,1,1-1.05,0V9H33.7v3.75a.53.53,0,1,1-1.05,0V9H29.82v2.42a.53.53,0,1,1-1.05,0V9H25.94v3.75a.53.53,0,1,1-1.05,0V9H22.06v2.42a.53.53,0,1,1-1.05,0V9H18.18v3.75a.53.53,0,1,1-1.05,0V9H11.26A2.3,2.3,0,0,0,9,11.26v5.87h3.75a.53.53,0,0,1,0,1.06H9V21h2.42a.53.53,0,0,1,0,1.06H9v2.82h3.75a.53.53,0,0,1,0,1.06H9v2.82h2.42a.53.53,0,0,1,0,1.06H9v2.82h3.75a.53.53,0,0,1,0,1.05H9v2.83h2.42a.53.53,0,0,1,0,1.05H9v2.82h3.75a.53.53,0,0,1,0,1.05H9v2.83h2.42a.53.53,0,0,1,0,1.05H9v3.4a2.3,2.3,0,0,0,2.3,2.3h4.1a2.3,2.3,0,0,0,2.3-2.3V17.66H48.74a2.3,2.3,0,0,0,2.3-2.3v-4.1A2.3,2.3,0,0,0,48.74,9Z"/></g></g></svg>