<svg xmlns="http://www.w3.org/2000/svg" viewBox="0 0 1024 1024"><defs><style>.cls-1{fill:gray;}.cls-2,.cls-3{fill:none;stroke:#eee;stroke-linecap:round;stroke-width:31.04px;}.cls-2{stroke-linejoin:round;}.cls-3{stroke-miterlimit:10;}</style></defs><title>iconFearApp</title><g id="Layer_2" data-name="Layer 2"><g id="Layer_1-2" data-name="Layer 1"><rect class="cls-1" width="1024" height="1024"/><path class="cls-2" d="M397.58,256.56c-118-83-141.4,54-117.28,63.79,0,0-49-.76-70.42,41.31-23.27,45.82,5.37,91.17,5.37,91.17s-40.88,9-40.81,62.5c.06,52.21,42,59.89,42,59.89-45.74,41.17,2.35,123.75,47.88,104.61a2.25,2.25,0,0,1,2.72,3.36C224.07,756,317.61,856.5,391.41,807.3c11,43.6,92.69,72.47,92.69-15.49V249.18a70.2,70.2,0,0,0-19.32-48.71C423.76,157.19,352.43,170.34,354,230"/><path class="cls-3" d="M397.58,338.25"/><path class="cls-2" d="M490.27,346.89"/><path class="cls-2" d="M589.17,346.89"/><path class="cls-3" d="M646.27,338.25"/><path class="cls-2" d="M553.58,346.89"/><path class="cls-2" d="M454.68,346.89"/><path class="cls-2" d="M266.78,764.85s-47.85-100.14,80-131.73"/><path class="cls-2" d="M247.8,327.23s78.06-28.1,77.66,64.78"/><path class="cls-2" d="M314.8,643.9s-55.35-111.68,44.37-136.38"/><path class="cls-2" d="M417.88,699s-4.38-67.08,62-65.87"/><path class="cls-2" d="M417.88,379.48s-4.38,67.08,62,65.87"/><path class="cls-2" d="M626.42,256.56c118-83,141.4,54,117.28,63.79,0,0,49-.76,70.42,41.31,23.27,45.82-5.37,91.17-5.37,91.17s40.88,9,40.81,62.5c-.06,52.21-42,59.89-42,59.89,45.74,41.17-2.35,123.75-47.88,104.61a2.25,2.25,0,0,0-2.72,3.36c43,72.82-50.56,173.31-124.36,124.11-11,43.6-92.69,72.47-92.69-15.49V249.18a70.2,70.2,0,0,1,19.32-48.71c41-43.28,112.35-30.12,110.83,29.49"/><path class="cls-3" d="M626.42,338.25"/><path class="cls-2" d="M533.73,346.89"/><path class="cls-2" d="M569.32,346.89"/><path class="cls-2" d="M757.22,764.85s47.85-100.14-80-131.73"/><path class="cls-2" d="M776.2,327.23s-78.06-28.1-77.66,64.78"/><path class="cls-2" d="M709.2,643.9s55.35-111.68-44.37-136.38"/><path class="cls-2" d="M606.12,699s4.38-67.08-62-65.87"/><path class="cls-2" d="M606.12,379.48s4.38,67.08-62,65.87"/></g></g></svg>